<mxfile host="app.diagrams.net" modified="2022-06-01T07:14:19.892Z" agent="5.0 (Macintosh; Intel Mac OS X 10_14_6) AppleWebKit/537.36 (KHTML, like Gecko) Chrome/101.0.4951.64 Safari/537.36" etag="nDbKqoEB3piIxgwlLOGv" version="18.2.0" type="github">
  <diagram id="ylnHAjVZKFytVAsGpEt1" name="第 1 页">
    <mxGraphModel dx="946" dy="532" grid="1" gridSize="10" guides="1" tooltips="1" connect="1" arrows="1" fold="1" page="1" pageScale="1" pageWidth="827" pageHeight="1169" math="0" shadow="0">
      <root>
        <mxCell id="0" />
        <mxCell id="1" parent="0" />
        <mxCell id="4qf6muTrts6Kvq2POUap-1" value="&lt;p style=&quot;margin:0px;margin-top:4px;text-align:center;&quot;&gt;&lt;span style=&quot;caret-color: rgb(50, 50, 50); color: rgb(50, 50, 50); font-family: 微软雅黑; font-size: 13px; font-weight: bold; text-size-adjust: auto; background-color: rgba(255, 255, 255, 0.008);&quot;&gt;AttributeAccessor&lt;/span&gt;&lt;/p&gt;&lt;div style=&quot;resize: none; outline: none; font-size: 13px; caret-color: rgb(50, 50, 50); color: rgb(50, 50, 50); font-family: 微软雅黑; font-weight: bold; text-align: center; text-size-adjust: auto; background-color: rgba(255, 255, 255, 0.008);&quot;&gt;（接口定义了一个通用协定，用于将元数据附加到任意对象或从任意对象访问元数据）&lt;/div&gt;&lt;hr size=&quot;1&quot;&gt;&lt;p style=&quot;margin:0px;margin-left:4px;&quot;&gt;&lt;span style=&quot;caret-color: rgb(50, 50, 50); color: rgb(50, 50, 50); font-family: 微软雅黑; font-size: 13px; text-size-adjust: auto; background-color: rgba(255, 255, 255, 0.008);&quot;&gt;setAttribute(String, @Nullable Object) - 设置属性值&lt;/span&gt;&lt;/p&gt;&lt;div style=&quot;resize: none; outline: none; font-size: 13px; caret-color: rgb(50, 50, 50); color: rgb(50, 50, 50); font-family: 微软雅黑; text-size-adjust: auto; background-color: rgba(255, 255, 255, 0.008);&quot;&gt;getAttribute(String name):Object - 根据名称获取值&lt;br&gt;&lt;/div&gt;&lt;div style=&quot;resize: none; outline: none; font-size: 13px; caret-color: rgb(50, 50, 50); color: rgb(50, 50, 50); font-family: 微软雅黑; text-size-adjust: auto; background-color: rgba(255, 255, 255, 0.008);&quot;&gt;removeAttribute(String name):Object - 根据名称删除值，如果有则返回该值&lt;br&gt;&lt;/div&gt;&lt;div style=&quot;resize: none; outline: none; font-size: 13px; caret-color: rgb(50, 50, 50); color: rgb(50, 50, 50); font-family: 微软雅黑; text-size-adjust: auto; background-color: rgba(255, 255, 255, 0.008);&quot;&gt;hasAttribute(String name):boolean - 根据名称判断是否含有该属性值&lt;br&gt;&lt;/div&gt;&lt;div style=&quot;resize: none; outline: none; font-size: 13px; caret-color: rgb(50, 50, 50); color: rgb(50, 50, 50); font-family: 微软雅黑; text-size-adjust: auto; background-color: rgba(255, 255, 255, 0.008);&quot;&gt;attributeNames():String[] - 返回所有属性值的name集合&lt;/div&gt;" style="verticalAlign=top;align=left;overflow=fill;fontSize=12;fontFamily=Helvetica;html=1;whiteSpace=wrap;" vertex="1" parent="1">
          <mxGeometry x="690" y="40" width="410" height="180" as="geometry" />
        </mxCell>
        <mxCell id="4qf6muTrts6Kvq2POUap-2" style="edgeStyle=orthogonalEdgeStyle;rounded=0;orthogonalLoop=1;jettySize=auto;html=1;fontFamily=Helvetica;fontSize=12;fontColor=default;" edge="1" parent="1" source="4qf6muTrts6Kvq2POUap-3" target="4qf6muTrts6Kvq2POUap-1">
          <mxGeometry relative="1" as="geometry" />
        </mxCell>
        <mxCell id="4qf6muTrts6Kvq2POUap-3" value="&lt;p style=&quot;margin:0px;margin-top:4px;text-align:center;&quot;&gt;&lt;span style=&quot;caret-color: rgb(50, 50, 50); color: rgb(50, 50, 50); font-family: 微软雅黑; font-size: 13px; font-weight: bold; text-size-adjust: auto; background-color: rgba(255, 255, 255, 0.008);&quot;&gt;BeanMetadataElement&lt;/span&gt;&lt;/p&gt;&lt;div style=&quot;resize: none; outline: none; font-size: 13px; caret-color: rgb(50, 50, 50); color: rgb(50, 50, 50); font-family: 微软雅黑; font-weight: bold; text-align: center; text-size-adjust: auto; background-color: rgba(255, 255, 255, 0.008);&quot;&gt;实现该接口的实现类，获取该类的配置源对象&lt;/div&gt;&lt;hr size=&quot;1&quot;&gt;&lt;p style=&quot;margin:0px;margin-left:4px;&quot;&gt;&lt;span style=&quot;caret-color: rgb(50, 50, 50); color: rgb(50, 50, 50); font-family: 微软雅黑; font-size: 13px; text-size-adjust: auto; background-color: rgba(255, 255, 255, 0.008);&quot;&gt;getSource():Object - 返回此元数据元素的配置源对象&lt;/span&gt;&lt;br&gt;&lt;/p&gt;" style="verticalAlign=top;align=left;overflow=fill;fontSize=12;fontFamily=Helvetica;html=1;whiteSpace=wrap;" vertex="1" parent="1">
          <mxGeometry x="580" y="310" width="240" height="100" as="geometry" />
        </mxCell>
      </root>
    </mxGraphModel>
  </diagram>
</mxfile>
